<?xml version="1.0" encoding="UTF-8"?> <svg xmlns="http://www.w3.org/2000/svg" xmlns:xlink="http://www.w3.org/1999/xlink" version="1.1" id="Layer_1" x="0px" y="0px" viewBox="0 0 600 600" style="enable-background:new 0 0 600 600;" xml:space="preserve"> <style type="text/css"> .st0{fill:#12D678;} </style> <g> <g> <g> <path class="st0" d="M339.4,451.7c-25.7-5.5-51.9,0.2-76.2,8.9c-26.3,9.4-51,22.5-77,32.5c-12.5,4.8-26.5,8.9-40,6.1 c-11.6-2.4-21.8-9.8-26.3-21c-4.8-12.1-3.6-25.5-7.2-37.9c-3-10.4-8.7-19.6-15-28.4c-6.4-9-13.4-17.7-18.6-27.6 c-5.5-10.5-8.2-22-7.9-33.9c0.6-25.2,12.7-49.8,28.9-68.6c8.9-10.4,19.4-18.7,31.9-24.4c12.2-5.6,24.7-9.9,35.9-17.6 c10-6.9,18.9-15.4,26.3-25c8-10.4,14.2-22.3,23.7-31.4c16.3-15.6,39.4-16.8,60.3-21.4c10.2-2.2,20.3-5.5,28.8-11.6 c10.3-7.4,16.4-18.7,25.3-27.5c9.4-9.4,20.6-16.9,31.7-24.2c11.4-7.5,23.2-15.4,36.7-18.6c24.7-6,46.8,10.3,58.5,31 c13.5,23.7,16.1,51.6,18.8,78.2c1.2,12.2,2.7,24.6,7.1,36.2c4.4,11.5,12.1,20.2,21.1,28.3c8.9,8,17.2,15.9,23.3,26.3 c6.1,10.5,10.1,22.1,12.1,34.1c2.1,12.7,2.1,25.8-0.3,38.5c-2.4,13.3-7,26-10.2,39.1c-3,12.3-4.8,25.2-1.4,37.7 c1.8,6.6,4.8,12.9,5.2,19.8c0.4,6.8-1,13.7-3.1,20.1c-6.8,20.8-23.2,39.2-44,46.7c-50.8,18.5-77.7-44.8-117.1-62.4 c-10.1-4.5-21.1-5.5-31.6-1.8c-0.8,0.3-0.4,1.5,0.3,1.2c26.6-9.2,49.3,12.5,66.9,29.5c16.3,15.7,34,34.8,57.7,37.8 c20.2,2.5,40-8.4,53.1-23.1c7.3-8.2,12.9-17.8,16.2-28.2c2-6.3,3.4-13.1,3-19.8c-0.4-6.8-3.1-12.9-5-19.3 c-3.8-13.3-1.6-27.1,1.8-40.2c3.5-13.5,8.2-26.7,10.2-40.5c3.5-23.7-0.5-48.9-12.6-69.7c-6.1-10.5-14.5-18.5-23.5-26.6 c-4.8-4.3-9.6-8.8-13.5-14.1c-3.8-5.2-6.6-11.1-8.6-17.2c-4-12.5-5.1-25.7-6.4-38.7c-1.3-13.6-3-27.2-6.2-40.4 c-5.6-23.1-16.7-47.1-38.4-58.9c-9.8-5.4-21-7.3-32-4.9c-13.6,2.9-25.6,10.7-37.1,18.2c-10.8,7.1-21.7,14.2-31.1,23 c-5.1,4.8-9.4,10.1-13.7,15.6c-4,5.2-8.3,10.1-13.7,13.9c-18,12.9-41.3,12.5-61.9,18.4c-10.4,3-20.2,7.7-28,15.3 c-9.5,9.3-15.6,21.3-23.7,31.6c-8,10.2-17.7,19.2-28.6,26.2c-11.7,7.5-25.1,11.4-37.4,17.8c-22.4,11.5-39.3,33.8-48.9,56.8 c-9.2,22.2-11.4,47.1-0.1,69c10.4,20.1,28.7,35.8,34.3,58.4c3.2,12.5,2,26.2,7.6,38.1c4.5,9.6,13.5,16.3,23.6,19.1 c12.7,3.5,26.1,0.6,38.2-3.7c13.4-4.7,26.4-10.8,39.4-16.6c25.4-11.3,51.4-23.2,79.2-27.4c13-2,26.2-2,39,0.8 C339.9,453.1,340.2,451.9,339.4,451.7L339.4,451.7z"></path> </g> </g> <g> <g> <path class="st0" d="M341.7,490.9c-32.4-6.9-65.4,0.3-96.1,11.2c-33.1,11.8-64.3,28.4-97.1,41c-15.9,6.1-33.5,11.3-50.5,7.7 c-14.7-3-27.7-12.5-33.3-26.6c-6-15.2-4.5-32.2-9.1-47.8c-3.8-13.1-11-24.8-18.9-35.8c-8.1-11.4-17-22.4-23.5-34.8 c-7-13.3-10.4-27.8-10-42.8C4,331,19.2,300,39.8,276.2c11.3-13.1,24.5-23.6,40.2-30.8c15.4-7.1,31.2-12.5,45.3-22.2 c12.6-8.7,23.7-19.4,33.1-31.5c10.1-13.1,17.9-28.2,29.9-39.7c20.6-19.7,49.8-21.2,76.2-27c12.8-2.8,25.5-6.9,36.3-14.6 c13-9.3,20.7-23.5,31.8-34.7c11.9-11.9,26-21.3,40.1-30.5c14.4-9.5,29.3-19.4,46.3-23.5c31.2-7.5,59.1,13,74,39.1 c17,30,20.3,65.1,23.8,98.7c1.6,15.4,3.4,31.1,8.9,45.6c5.5,14.5,15.2,25.4,26.6,35.6c11.2,10.1,21.7,20.1,29.4,33.3 c7.7,13.2,12.8,28,15.3,43.1c2.7,16.1,2.6,32.6-0.3,48.7c-3.1,16.7-8.9,32.8-12.9,49.3c-3.8,15.5-6.1,31.8-1.8,47.4 c2.3,8.3,6,16.3,6.5,25c0.5,8.6-1.3,17.3-4,25.5c-8.6,26.3-29.4,49.5-55.6,59.1c-64.1,23.4-98.2-56.5-147.9-78.7 c-12.8-5.7-26.5-6.9-39.8-2.3c-0.8,0.3-0.4,1.5,0.3,1.2c33.6-11.7,62.3,15.8,84.5,37.2c20.5,19.8,42.8,43.9,72.7,47.6 c25.4,3.2,50.3-10.5,66.8-29c9.1-10.3,16.2-22.4,20.3-35.5c2.5-8,4.2-16.5,3.7-25c-0.5-8.5-4-16.3-6.3-24.4 c-4.9-16.8-2-34.3,2.3-50.8c4.4-17,10.4-33.6,12.9-51.1c4.4-29.8-0.6-61.7-15.9-87.8c-7.7-13.2-18.3-23.4-29.6-33.5 c-6.1-5.5-12.1-11.2-17-17.8c-4.9-6.6-8.4-14-10.9-21.8c-5.1-15.8-6.5-32.4-8.1-48.8c-1.7-17.1-3.8-34.2-7.9-51 c-7.1-29.1-21-59.3-48.4-74.3c-12.4-6.8-26.4-9.1-40.3-6.2c-17.1,3.6-32.3,13.5-46.8,22.9c-13.6,8.9-27.3,17.9-39.2,29 c-6.4,6-11.9,12.8-17.3,19.7c-5.1,6.6-10.5,12.8-17.3,17.6c-22.8,16.3-52.1,15.8-78.2,23.2c-13.1,3.7-25.5,9.7-35.3,19.3 c-11.9,11.7-19.7,26.9-30,39.9c-10.1,12.9-22.3,24.2-36.2,33c-14.8,9.5-31.6,14.4-47.1,22.4C45.3,261.7,24,289.7,12,318.6 c-11.6,28-14.4,59.4-0.2,87C24.9,431,48,450.8,55.1,479.3c4,15.8,2.5,33,9.6,48c5.7,12.1,17,20.5,29.7,24 c16,4.4,32.8,0.7,48.1-4.6c16.9-5.9,33.3-13.7,49.6-21c32.1-14.3,64.9-29.2,100-34.5c16.4-2.5,33.1-2.5,49.3,1 C342.2,492.3,342.5,491.1,341.7,490.9L341.7,490.9z"></path> </g> </g> </g> </svg> 