<?xml version="1.0" encoding="UTF-8"?> <svg xmlns="http://www.w3.org/2000/svg" xmlns:xlink="http://www.w3.org/1999/xlink" version="1.1" id="Layer_1" x="0px" y="0px" viewBox="0 0 600 600" style="enable-background:new 0 0 600 600;" xml:space="preserve"> <style type="text/css"> .st0{fill:#F4F4F4;} .st1{fill:none;stroke:#02293D;stroke-width:10;stroke-linecap:round;stroke-linejoin:round;stroke-miterlimit:10;} .st2{fill:#02293D;} </style> <g> <image style="overflow:visible;opacity:0.2;" width="1963" height="1963" transform="matrix(0.24 0 0 0.24 64.4411 47.07)"> </image> <g> <circle class="st0" cx="300" cy="282.6" r="220.4"></circle> </g> </g> <g> <path class="st1" d="M391.4,195.6v142.3c-7.2-3.7-15.2-5.8-23.9-5.8c-28.7,0-51.9,23.2-51.9,51.9c0,6.2,1.1,12.2,3.1,17.6H202.1 c-12,0-21.7-9.7-21.7-21.7V150.9c0-12,9.7-21.7,21.7-21.7h122.9v66.4H391.4z"></path> <polygon class="st1" points="391.4,195.6 325.1,195.6 325.1,129.3 "></polygon> <path class="st1" d="M419.5,384c0,28.7-23.2,51.9-51.9,51.9c-22.4,0-41.6-14.3-48.9-34.3c-2-5.5-3.1-11.4-3.1-17.6 c0-28.7,23.3-51.9,51.9-51.9c8.6,0,16.7,2.1,23.9,5.8C408.1,346.5,419.5,363.9,419.5,384z"></path> <g> <g> <path class="st2" d="M364.4,414.3v-7.1c-2-0.2-4.2-0.8-6.5-1.7c-2.3-0.9-4.3-2.1-6.1-3.7l5.2-8.2c1.9,1.4,3.7,2.4,5.2,3 c1.6,0.6,3.1,0.9,4.5,0.9c1.8,0,3.1-0.3,3.8-1c0.8-0.6,1.1-1.6,1.1-3c0-0.9-0.4-1.8-1.3-2.5c-0.9-0.7-2-1.4-3.4-2.1 c-1.4-0.7-2.9-1.4-4.4-2.2c-1.6-0.8-3-1.7-4.4-2.8c-1.4-1.1-2.5-2.3-3.4-3.8c-0.9-1.5-1.3-3.3-1.3-5.3c0-3.6,1-6.6,2.9-8.9 c1.9-2.4,4.6-3.9,8-4.7v-7.4h7.9v7.2c2.2,0.3,4.2,1,5.9,2.1c1.7,1.1,3.3,2.3,4.7,3.9l-6,6.9c-1.3-1.1-2.5-2-3.6-2.5 c-1.2-0.6-2.4-0.8-3.7-0.8c-1.5,0-2.6,0.3-3.4,0.8c-0.8,0.5-1.1,1.5-1.1,2.9c0,0.9,0.4,1.7,1.3,2.4c0.9,0.7,2,1.3,3.4,2 c1.4,0.6,2.9,1.3,4.4,2.1c1.6,0.8,3,1.7,4.4,2.7c1.4,1,2.5,2.3,3.4,3.8c0.9,1.5,1.3,3.4,1.3,5.5c0,3.4-0.9,6.4-2.7,8.9 c-1.8,2.5-4.6,4.2-8.3,5.1v7.5H364.4z"></path> </g> </g> <line class="st1" x1="217" y1="231.5" x2="235" y2="231.5"></line> <line class="st1" x1="257.1" y1="231.5" x2="354.9" y2="231.5"></line> <line class="st1" x1="217" y1="253.1" x2="235" y2="253.1"></line> <line class="st1" x1="257.1" y1="253.1" x2="354.9" y2="253.1"></line> <line class="st1" x1="217" y1="274.6" x2="235" y2="274.6"></line> <line class="st1" x1="257.1" y1="274.6" x2="354.9" y2="274.6"></line> <line class="st1" x1="217" y1="296.2" x2="235" y2="296.2"></line> <line class="st1" x1="257.1" y1="296.2" x2="354.9" y2="296.2"></line> </g> </svg> 