<?xml version="1.0" encoding="UTF-8"?> <svg xmlns="http://www.w3.org/2000/svg" xmlns:xlink="http://www.w3.org/1999/xlink" version="1.1" id="Layer_1" x="0px" y="0px" viewBox="0 0 600 600" style="enable-background:new 0 0 600 600;" xml:space="preserve"> <style type="text/css"> .st0{fill:#F4F4F4;} .st1{fill:#02293D;} </style> <g> <image style="overflow:visible;opacity:0.2;" width="1895" height="1896" transform="matrix(0.24 0 0 0.24 72.5223 57.3063)"> </image> <g> <circle class="st0" cx="300" cy="284.9" r="212.3"></circle> </g> </g> <g> <path class="st1" d="M363,350.6H237c-2.5,0-4.4-2-4.4-4.4v-36.7c0-21.2,14-36.5,33.3-36.5h6.2c1.3,0,2.5,0.5,3.3,1.5 c5.7,6.5,16.3,11.4,24.6,11.4c8.3,0,18.9-4.9,24.5-11.4c0.8-1,2.1-1.5,3.3-1.5h6.3c19.3,0,33.3,15.4,33.3,36.5v36.7 C367.4,348.6,365.4,350.6,363,350.6z M241.5,341.7h117.1v-32.3c0-16.3-10-27.6-24.4-27.6h-4.3c-7.6,7.7-19.5,12.9-29.8,12.9 c-10.3,0-22.3-5.2-29.9-12.9h-4.3c-14.3,0-24.4,11.4-24.4,27.6V341.7z M375.5,382.6c0-2.5-2-4.4-4.4-4.4H228.9 c-2.5,0-4.4,2-4.4,4.4s2,4.4,4.4,4.4h142.1C373.5,387.1,375.5,385.1,375.5,382.6z M374.4,137.2H225.6c-13.5,0-24.5,11-24.5,24.5 v246.4c0,13.5,11,24.5,24.5,24.5h148.8c13.5,0,24.5-11,24.5-24.5V161.7C398.9,148.1,387.9,137.2,374.4,137.2z M390,408.1 c0,8.6-7,15.6-15.6,15.6H225.6c-8.6,0-15.6-7-15.6-15.6V161.7c0-8.6,7-15.6,15.6-15.6h148.8c8.6,0,15.6,7,15.6,15.6V408.1z M367.8,219.8c-3.1-3.8-7.5-6.2-12.4-6.7l-1.5-0.2c-6.7-23.4-28.3-40.7-53.9-40.7s-47.2,17.2-53.9,40.7l-1.4,0.1 c-10.1,1-17.5,10.1-16.5,20.2c0.5,4.9,2.9,9.3,6.7,12.4c3.3,2.7,7.4,4.2,11.6,4.2c0.6,0,1.2,0,1.9-0.1l2-0.2c2.4-0.3,4.2-2.4,4-4.9 l-1.6-16c0-0.1,0-0.2,0-0.4c0-26,21.1-47.2,47.2-47.2c26,0,47.2,21.1,47.2,47.2c0,0.4,0,0.7,0.1,1.1l-1,10.2l-0.2,1.4l-1,8.4 c-0.2,1.8-1.7,3.2-3.6,3.2h-7.3c4.2-8,6.7-16.9,6.7-25.3c0-22.6-18.4-40.9-40.9-40.9c-22.6,0-40.9,18.4-40.9,40.9 c0,22.7,18.2,50.1,40.9,50.1c11.1,0,21.2-6.6,28.5-16h13c6.4,0,11.7-4.8,12.4-11.1l0-0.5c4,0,8-1.5,11.2-4.1 c3.8-3.1,6.2-7.5,6.7-12.4C372.4,228.5,370.9,223.7,367.8,219.8z M240.6,238.9c-2-1.6-3.2-3.9-3.5-6.4c-0.4-4.4,2.2-8.4,6.1-9.9 l1.9,18.3C243.5,240.7,241.9,240,240.6,238.9z M323.8,252.6h-27.2c-2.4,0-4.4,2-4.4,4.4c0,2.4,2,4.4,4.4,4.4h19.7 c-4.8,4.4-10.5,7.1-16.3,7.1c-16.9,0-32-23-32-41.2c0-17.7,14.4-32,32-32s32,14.4,32,32C332,235.6,328.9,244.9,323.8,252.6z M363,232.5c-0.2,2.5-1.5,4.8-3.4,6.4c-1.3,1.1-2.9,1.8-4.5,2l1.9-18.3c1.6,0.6,2.9,1.6,4,2.9C362.5,227.5,363.3,229.9,363,232.5z M319.2,404.6c0-2.5-2-4.4-4.4-4.4h-29.5c-2.5,0-4.4,2-4.4,4.4s2,4.4,4.4,4.4h29.5C317.2,409.1,319.2,407.1,319.2,404.6z"></path> </g> </svg> 