<?xml version="1.0" encoding="UTF-8"?> <svg xmlns="http://www.w3.org/2000/svg" xmlns:xlink="http://www.w3.org/1999/xlink" version="1.1" id="Layer_1" x="0px" y="0px" viewBox="0 0 600 600" style="enable-background:new 0 0 600 600;" xml:space="preserve"> <style type="text/css"> .st0{fill:#12D678;} </style> <g> <g> <path class="st0" d="M238.5,135.3c29.2-4.4,56.7-15.3,82-30.6C344.6,89.9,366.6,72,389,54.9c23.6-18,53.1-41.6,84.9-31 c7.1,2.4,13.5,6.5,18.4,12.1c4.8,5.6,8.1,12.3,11.1,19c3.1,6.9,6,13.7,10,20.1c3.5,5.5,7.8,10.4,12.4,15 c19.5,18.7,46.1,30.1,60.5,53.8c15.7,25.8,14,59,4.7,86.7c-5.2,15.3-12.8,30.2-23.5,42.4c-10.7,12.3-24.9,20.5-37.3,30.8 c-11.7,9.6-21.6,21.4-29.2,34.4c-8.1,13.7-12.3,28.6-18.3,43.3c-5.3,13.1-13,24.1-24.5,32.4c-9.6,7.1-20.6,12.1-31.5,17.1 c-21.7,9.8-44.3,20.3-55.5,42.7c-3.6,7.1-6.2,14.5-10,21.5c-4,7.4-8.9,14.1-14.1,20.7c-9.9,12.3-21,24.2-32.4,35.1 c-11.3,10.8-24.4,20.5-40.1,23.4c-14.9,2.7-30.3-0.8-43.7-7.7c-28.7-14.8-46.4-44-59.6-72.4c-11.9-25.9-20.4-57.1-44.8-74.5 c-12.9-9-28.3-13.4-41.8-21.3c-12.3-7.2-23-17.1-31.4-28.5c-8.5-11.3-14.9-24.2-19.1-37.7c-4.5-14.7-5.5-29.7-5.5-45.1 c0-15.1,0.7-30.4-2.5-45.3c-1.5-7-4-13.7-7.7-19.8c-3.9-6.4-9.2-11.8-12.4-18.6c-6.9-13.6-5.7-31.3-1.6-45.7 c3.8-13.3,10.8-25.7,20.3-35.7c9.1-9.6,20.5-17.2,33.3-20.8c14.9-4.2,30.6-2.1,45.2,2.6c16.2,5.2,31.2,13.3,46.5,20.9 c13.9,6.9,28.3,11.6,43.8,12.9C208.6,139,223.6,137.5,238.5,135.3c0.8-0.1,0.5-1.3-0.3-1.2c-16.3,2.4-32.9,4.1-49.3,2 c-8.3-1-16.5-3.1-24.3-6c-8.1-3-15.7-7.1-23.5-10.9c-27-13.4-58.1-28.5-88.4-17.2C28.1,111,9.9,133.6,3,158.4 c-3.7,13.6-4.7,29.6,0.7,42.9c2.9,7.1,8,12.7,12.1,19c4.4,6.6,7.3,13.8,9,21.6c3.5,15.5,2.5,31.6,2.6,47.3c0,15,1.3,29.8,5.8,44.3 c8.3,26.5,25.6,50.7,49.4,65.3c13.5,8.3,29.1,12.7,42.2,21.8c13,9.1,21.6,22.6,28.4,36.6c7,14.2,12.4,29.1,19.3,43.5 c7,14.3,14.9,28.3,25.2,40.6c18.2,22,46.3,39.6,76,34.7c14.9-2.5,27.8-11.1,38.7-21.2c11.9-10.8,23.1-23.1,33.4-35.4 c5-6,9.6-12.2,13.7-18.8c4.5-7.4,7.6-15.3,11.2-23.1c5.8-12.3,14.4-21.9,25.8-29.3c20.3-13.3,44.7-19.3,64-34.2 c10.5-8.2,17.7-18.6,22.8-30.8c3.2-7.8,5.8-15.9,8.8-23.8c3-7.6,6.6-14.9,10.7-21.9c8.6-14.1,19.7-26.3,32.8-36.3 c12.9-9.9,26.4-18.7,36.4-31.7c18.3-23.9,28.5-55.8,26.9-85.9c-0.8-14.1-4.5-28.3-11.9-40.4c-7.1-11.4-17.3-20.4-28-28.4 c-10.9-8.3-22.6-15.7-32.4-25.3c-5.3-5.1-9.9-10.7-13.6-17c-3.8-6.6-6.6-13.5-9.7-20.4c-3.1-6.8-6.7-13.4-11.9-18.7 c-4.6-4.7-10.1-8.1-16.3-10.2c-13.7-4.9-28.5-3.1-41.8,2.3c-15.1,6.1-28.3,16.1-41.2,25.9c-11.7,8.9-23.3,18-35.1,26.9 c-23.4,17.6-47.9,34.1-75.4,44.7c-14,5.4-28.5,9.2-43.4,11.4C237.3,134.2,237.7,135.4,238.5,135.3z"></path> </g> </g> <g> <g> <path class="st0" d="M107,169.6c17.7-11.9,39.4-10.8,59.6-7.5c21.2,3.6,41.9,9.3,63.5,9.8c22.3,0.6,44.7-2.8,65.8-10 c21-7.3,39.8-18.8,58.6-30.4c18.2-11.2,36.9-22.8,57.7-28.8c18-5.2,37.9-6.8,55.9-1c8.8,2.8,16.9,7.5,23.6,13.8 c7.4,7.1,12.6,15.9,16.3,25.4c3.6,9.4,5.8,19.2,7.3,29c1.7,11.2,2.7,22.6,3,33.9c1.2,43.4-9.1,87.9-37.9,121.4 c-12.6,14.6-28.4,26.7-46.6,33.8c-21.2,8.4-44.1,10.3-66.3,13.9c-11,1.8-22,4.1-32.6,7.7c-10.5,3.5-20.7,8-30.7,12.6 c-20.2,9.5-40.1,20-61.8,25.8c-33.1,9-70.4,4.5-100.2-12.7c-14.6-8.5-27.5-20.1-36.3-34.5c-11.7-19-15.4-41.7-19.1-63.4 c-3.7-21.8-7.4-44.1-7.8-66.3c-0.3-17.8,1.5-36.6,10-52.6c4.1-7.6,9.6-14.1,16.5-19.2c0.6-0.5,0-1.6-0.6-1.1 c-30.6,22.6-29.1,66.3-25.2,100c1.5,12.4,3.3,24.9,5.3,37.2c2.1,12.2,4.2,24.5,7.4,36.4c5,18.4,13.6,35.1,27.4,48.5 c24.7,24,60.5,34.9,94.4,33.4c19.6-0.9,38.2-6.6,56.2-14.3c21.2-9.2,41.4-20.5,63.3-28c22.1-7.6,45.4-9.4,68.1-13.4 c11.3-2.1,22.7-4.8,33.3-9.1c9-3.7,17.4-8.5,25.2-14.2c33.4-24.9,51.9-64.5,57.3-105c3.1-23.1,2.3-46.6-1-69.5 c-2.8-19.4-8.3-39.8-22.2-54.4c-27.5-28.8-73.2-21.7-105.5-6.1c-20.6,9.9-39.3,23.2-59.2,34.4c-20.5,11.5-42.3,20-65.6,23.7 c-23.2,3.7-46.3,2.4-69.1-2.1c-20.4-4-41.5-9.8-62.4-7.3c-9.4,1.1-18.3,4.1-26.1,9.4C105.7,169,106.4,170.1,107,169.6L107,169.6z"></path> </g> </g> </svg> 