<?xml version="1.0" encoding="UTF-8"?> <svg xmlns="http://www.w3.org/2000/svg" xmlns:xlink="http://www.w3.org/1999/xlink" version="1.1" id="Layer_1" x="0px" y="0px" viewBox="0 0 375 40" style="enable-background:new 0 0 375 40;" xml:space="preserve"> <style type="text/css"> .st0{fill:none;stroke:#12D678;stroke-width:4;stroke-miterlimit:10;} </style> <g> <g> <g> <path class="st0" d="M24.6,20c0,3-2.5,5.5-5.5,5.5S13.6,23,13.6,20c0-3.1,2.5-5.5,5.5-5.5S24.6,17,24.6,20z"></path> <path class="st0" d="M42.4,20c0,3-2.5,5.5-5.5,5.5S31.4,23,31.4,20c0-3.1,2.5-5.5,5.5-5.5S42.4,17,42.4,20z"></path> <line class="st0" x1="22.7" y1="15.9" x2="32.8" y2="23.8"></line> </g> <line class="st0" x1="41.2" y1="23.5" x2="50.8" y2="15.9"></line> </g> <g> <g> <path class="st0" d="M95.5,20c0,3-2.5,5.5-5.5,5.5S84.5,23,84.5,20c0-3.1,2.5-5.5,5.5-5.5S95.5,17,95.5,20z"></path> <path class="st0" d="M113.3,20c0,3-2.5,5.5-5.5,5.5s-5.5-2.5-5.5-5.5c0-3.1,2.5-5.5,5.5-5.5S113.3,17,113.3,20z"></path> <line class="st0" x1="93.6" y1="15.9" x2="103.7" y2="23.8"></line> </g> <line class="st0" x1="112.1" y1="23.5" x2="121.7" y2="15.9"></line> </g> <g> <g> <path class="st0" d="M130.9,20c0,3-2.5,5.5-5.5,5.5s-5.5-2.5-5.5-5.5c0-3.1,2.5-5.5,5.5-5.5S130.9,17,130.9,20z"></path> <path class="st0" d="M148.7,20c0,3-2.5,5.5-5.5,5.5s-5.5-2.5-5.5-5.5c0-3.1,2.5-5.5,5.5-5.5C146.3,14.5,148.7,17,148.7,20z"></path> <line class="st0" x1="129.1" y1="15.9" x2="139.1" y2="23.8"></line> </g> <line class="st0" x1="147.6" y1="23.5" x2="157.2" y2="15.9"></line> </g> <g> <g> <path class="st0" d="M166.4,20c0,3-2.5,5.5-5.5,5.5s-5.5-2.5-5.5-5.5c0-3.1,2.5-5.5,5.5-5.5S166.4,17,166.4,20z"></path> <path class="st0" d="M184.2,20c0,3-2.5,5.5-5.5,5.5s-5.5-2.5-5.5-5.5c0-3.1,2.5-5.5,5.5-5.5S184.2,17,184.2,20z"></path> <line class="st0" x1="164.5" y1="15.9" x2="174.6" y2="23.8"></line> </g> <line class="st0" x1="183" y1="23.5" x2="192.6" y2="15.9"></line> </g> <g> <g> <path class="st0" d="M201.8,20c0,3-2.5,5.5-5.5,5.5s-5.5-2.5-5.5-5.5c0-3.1,2.5-5.5,5.5-5.5S201.8,17,201.8,20z"></path> <path class="st0" d="M219.6,20c0,3-2.5,5.5-5.5,5.5s-5.5-2.5-5.5-5.5c0-3.1,2.5-5.5,5.5-5.5C217.2,14.5,219.6,17,219.6,20z"></path> <line class="st0" x1="200" y1="15.9" x2="210" y2="23.8"></line> </g> <line class="st0" x1="218.4" y1="23.5" x2="228.1" y2="15.9"></line> </g> <g> <g> <path class="st0" d="M237.3,20c0,3-2.5,5.5-5.5,5.5s-5.5-2.5-5.5-5.5c0-3.1,2.5-5.5,5.5-5.5S237.3,17,237.3,20z"></path> <path class="st0" d="M255.1,20c0,3-2.5,5.5-5.5,5.5s-5.5-2.5-5.5-5.5c0-3.1,2.5-5.5,5.5-5.5S255.1,17,255.1,20z"></path> <line class="st0" x1="235.4" y1="15.9" x2="245.5" y2="23.8"></line> </g> <line class="st0" x1="253.9" y1="23.5" x2="263.5" y2="15.9"></line> </g> <g> <g> <path class="st0" d="M272.7,20c0,3-2.5,5.5-5.5,5.5s-5.5-2.5-5.5-5.5c0-3.1,2.5-5.5,5.5-5.5S272.7,17,272.7,20z"></path> <path class="st0" d="M290.5,20c0,3-2.5,5.5-5.5,5.5s-5.5-2.5-5.5-5.5c0-3.1,2.5-5.5,5.5-5.5C288.1,14.5,290.5,17,290.5,20z"></path> <line class="st0" x1="270.9" y1="15.9" x2="280.9" y2="23.8"></line> </g> <line class="st0" x1="289.3" y1="23.5" x2="298.9" y2="15.9"></line> </g> <g> <g> <path class="st0" d="M308.2,20c0,3-2.5,5.5-5.5,5.5s-5.5-2.5-5.5-5.5c0-3.1,2.5-5.5,5.5-5.5S308.2,17,308.2,20z"></path> <path class="st0" d="M326,20c0,3-2.5,5.5-5.5,5.5S315,23,315,20c0-3.1,2.5-5.5,5.5-5.5S326,17,326,20z"></path> <line class="st0" x1="306.3" y1="15.9" x2="316.4" y2="23.8"></line> </g> <line class="st0" x1="324.8" y1="23.5" x2="334.4" y2="15.9"></line> </g> <g> <g> <path class="st0" d="M343.6,20c0,3-2.5,5.5-5.5,5.5s-5.5-2.5-5.5-5.5c0-3.1,2.5-5.5,5.5-5.5S343.6,17,343.6,20z"></path> <path class="st0" d="M361.4,20c0,3-2.5,5.5-5.5,5.5s-5.5-2.5-5.5-5.5c0-3.1,2.5-5.5,5.5-5.5S361.4,17,361.4,20z"></path> <line class="st0" x1="341.8" y1="15.9" x2="351.8" y2="23.8"></line> </g> </g> <g> <g> <path class="st0" d="M60,20c0,3-2.5,5.5-5.5,5.5S49,23,49,20c0-3.1,2.5-5.5,5.5-5.5C57.6,14.5,60,17,60,20z"></path> <path class="st0" d="M77.9,20c0,3-2.5,5.5-5.5,5.5S66.9,23,66.9,20c0-3.1,2.5-5.5,5.5-5.5S77.9,17,77.9,20z"></path> <line class="st0" x1="58.2" y1="15.9" x2="68.2" y2="23.8"></line> </g> <line class="st0" x1="76.7" y1="23.5" x2="86.3" y2="15.9"></line> </g> </g> </svg> 