<?xml version="1.0" encoding="UTF-8"?> <svg xmlns="http://www.w3.org/2000/svg" xmlns:xlink="http://www.w3.org/1999/xlink" version="1.1" id="EntreLogo" x="0px" y="0px" viewBox="0 0 275.6 40" style="enable-background:new 0 0 275.6 40;" xml:space="preserve"> <style type="text/css"> .st0{fill:#231F20;} .st1{fill:#FDD24D;} </style> <path class="st0" d="M0,23.8h1.6c0.6-0.1,1.1-0.6,1.2-1.2V3.7C2.7,3.1,2.2,2.6,1.6,2.5H0V0h20.2V7h-2.7L17,2.7H7v8.9h5.1l0.3-3.1H15 v8.7h-2.6l-0.3-3.1H7v9.4h10.4l0.5-4.8h2.8v7.4H0V23.8z"></path> <path class="st0" d="M22.7,23.8h1.5c0.5-0.1,0.9-0.5,1-1V10.2c-0.1-0.5-0.5-0.9-1-1h-1.6V6.7h5.7c0.6,0,1,0.5,0.9,2.4v0.5 c2.1-2,4.8-3.1,7.7-3.1c2.8,0,5.1,1,5.1,4.9v11.5c0,0.5,0.5,1,1,1h1.1v2.4h-8.9v-2.4H38V12.6c0-2.4-1.1-3-3.1-3 c-2,0.1-4,0.7-5.7,1.9v12.4h2.7v2.4h-9.2L22.7,23.8L22.7,23.8z"></path> <path class="st0" d="M46.4,21.6V9.2h-2.5V6.7h2.5V1.4h4v5.3h4.5v2.5h-4.5v12c0,2.2,0.8,2.7,2.7,2.7h1.4v2.2 c-0.9,0.4-1.8,0.5-2.7,0.5C48.5,26.5,46.4,25.2,46.4,21.6z"></path> <path class="st0" d="M57.1,23.8h1.5c0.5-0.1,0.9-0.5,1-1V10.2c-0.1-0.5-0.5-0.9-1-1h-1.6V6.7h5.7c0.6,0,0.9,0.5,0.9,2.6v0.6 c1.4-1.8,3.1-3.4,5.8-3.4c0.6,0,1.3,0.2,1.8,0.5c-0.7,0.9-1.2,1.9-1.7,2.9c-2.2-0.2-4.4,0.5-6,2.1v11.9h3.1v2.3H57L57.1,23.8 L57.1,23.8z"></path> <path class="st1" d="M189.6,23.8h1.5c0.5-0.1,0.9-0.5,1-1V10.2c-0.1-0.5-0.5-0.9-1-1h-1.6V6.7h5.7c0.6,0,0.9,0.5,0.9,2.6v0.6 c1.4-1.8,3.1-3.4,5.8-3.4c0.6,0,1.3,0.2,1.8,0.5c-0.7,0.9-1.2,1.9-1.7,2.9c-2.2-0.2-4.4,0.5-6,2.1v11.9h3.1v2.3h-9.6L189.6,23.8 L189.6,23.8z"></path> <path class="st0" d="M69.7,16.5c0-6.2,3.9-10.1,9.5-10.1c5.5,0,8.7,2.9,8.7,9.4c0,0.6,0,1.1,0,1.2h-14c0.1,4.6,2.1,6.8,6,6.8 c1.9,0.2,3.8-0.7,5-2.2h2.3v2.8c-2.3,1.4-5,2.1-7.7,2C73,26.4,69.7,22.6,69.7,16.5z M83.8,14.6c-0.1-4.1-1.8-5.7-4.6-5.7 s-4.9,1.9-5.2,5.7H83.8L83.8,14.6z"></path> <path class="st1" d="M89.2,23.8h1.6c0.6-0.1,1.1-0.6,1.2-1.2V3.7c-0.1-0.6-0.5-1.1-1.2-1.2h-1.6V0H100v2.5h-3.8v21.1h9.5l0.4-5.5h3 v8.1h-20V23.8z"></path> <path class="st1" d="M110.8,16.5c0-6.2,3.9-10.1,9.5-10.1c5.5,0,8.7,2.9,8.7,9.4c0,0.6,0,1.1,0,1.2h-14c0.1,4.6,2.1,6.8,6,6.8 c1.9,0.2,3.8-0.7,5-2.2h2.3v2.8c-2.3,1.4-5,2.1-7.7,2C114.1,26.4,110.8,22.6,110.8,16.5z M124.9,14.6c-0.1-4.1-1.8-5.7-4.6-5.7 s-4.9,1.9-5.2,5.7H124.9L124.9,14.6z"></path> <path class="st1" d="M130.4,20.6c0-4,3.2-5.9,7.7-5.9c1.5,0,3,0.2,4.5,0.5v-2.6c0-2.5-1.5-3.4-4-3.4c-1.9-0.1-3.7,0.6-5.1,1.8h-1.9 V7.9c2.4-1.1,5-1.6,7.7-1.5c4.6,0,7.3,1.5,7.3,5.8v10.4c0,0.6,0.4,1.2,1,1.2c0.1,0,0.1,0,0.2,0h1v2c-0.8,0.4-1.7,0.6-2.6,0.6 c-2.1,0-3.2-0.9-3.5-2.6c-1.5,1.8-3.7,2.8-6,2.6C133,26.4,130.4,24.5,130.4,20.6z M142.6,21.7v-4.3c-1.2-0.2-2.4-0.4-3.7-0.4 c-2.8,0-4.6,1-4.6,3.4s1.4,3.4,3.6,3.4C139.8,23.8,141.5,23,142.6,21.7L142.6,21.7z"></path> <path class="st1" d="M149.1,16.6c0-7.5,4.6-10.2,8.6-10.2c2.2-0.1,4.4,0.7,6,2.3V2.5h-2.8V0h6.1c0.5,0,0.8,0.4,0.8,1v21.7 c0.1,0.5,0.5,0.9,1,1h1.5v2.4h-5.6c-0.5,0-0.8-0.6-0.8-2.7c-1.6,1.9-4,3-6.5,2.9C153.3,26.4,149.1,24.1,149.1,16.6z M163.7,21.3 V10.9c-1.3-1.1-3-1.7-4.7-1.6c-2.9,0-5.7,1.6-5.7,7.3c0,6,2.6,7.4,5.1,7.4C160.4,23.9,162.4,22.9,163.7,21.3z"></path> <path class="st1" d="M170.1,16.5c0-6.2,3.9-10.1,9.5-10.1c5.5,0,8.7,2.9,8.7,9.4c0,0.6,0,1.1,0,1.2h-14c0.1,4.6,2.1,6.8,6,6.8 c1.9,0.2,3.8-0.7,5-2.2h2.3v2.8c-2.3,1.4-5,2.1-7.7,2C173.5,26.4,170.1,22.6,170.1,16.5z M184.2,14.6c-0.1-4.1-1.8-5.7-4.6-5.7 s-4.9,1.9-5.2,5.7H184.2z"></path> <path class="st1" d="M203.2,25.3v-4.1h2.4c0.5,1.8,1.7,2.6,4.3,2.6s4.3-1,4.3-3c0-1.8-1.4-2.4-4.7-2.9c-4-0.6-6.1-1.9-6.1-5.8 c0-3.7,2.8-5.8,7.5-5.8c2.2-0.1,4.4,0.3,6.4,1v3.9h-2.4c-0.4-1.5-1.5-2.2-4.2-2.2c-2.4,0-3.8,1-3.8,2.6s1,2.3,4.5,2.8 c4.5,0.7,6.6,1.9,6.6,5.8s-2.6,6.2-8,6.2C207.8,26.5,205.4,26.1,203.2,25.3z"></path> <path class="st1" d="M225.2,23.8h2.7v2.4h-8.7v-2.4h1c0.5-0.1,0.9-0.5,1-1V3.6c-0.1-0.5-0.5-0.9-1-1h-1.6V0.1h5.9 c0.5,0,0.8,0.3,0.8,1v8.5c2.1-2,4.8-3.1,7.7-3.1c2.8,0,5.1,1,5.1,4.9v11.5c0,0.5,0.5,1,1,1h0.6v2.4h-8.3v-2.4h2.7V12.6 c0-2.4-1.1-3-3.1-3c-2,0.1-4,0.7-5.7,1.9L225.2,23.8L225.2,23.8z"></path> <path class="st1" d="M241.8,23.8h0.8c0.5-0.1,0.9-0.5,1-1V10.2c-0.1-0.5-0.5-0.9-1-1H241V6.7h5.9c0.5,0,0.8,0.4,0.8,1.7v14.4 c0,0.5,0.5,1,1,1h1.5v2.4h-8.3V23.8z M243.2,2.3c0-1.3,1-2.3,2.3-2.3c0,0,0,0,0.1,0c1.3,0,2.3,1,2.3,2.3c0,1.3-1,2.3-2.3,2.3 c0,0,0,0,0,0C244.3,4.6,243.2,3.6,243.2,2.3C243.2,2.3,243.2,2.3,243.2,2.3z"></path> <path class="st1" d="M250.2,30h1.5c0.5-0.1,0.9-0.5,1-1V10.2c-0.1-0.5-0.5-0.9-1-1H250V6.7h5.7c0.5,0,0.9,0.4,0.9,2.3v0.5 c1.7-1.9,4.1-3,6.6-3c3.7,0,7.5,2.5,7.5,9.7c0,7.4-4.4,9.9-8.5,9.9c-2,0.1-4-0.5-5.6-1.8V30h2.9v2.2h-9.4L250.2,30L250.2,30z M266.6,16.4c0-5.7-2.5-7.1-5.1-7.1c-1.8,0.1-3.5,0.9-4.8,2.1v10.4c1.2,1.2,2.8,1.8,4.5,1.8C263.7,23.6,266.5,22.3,266.6,16.4 L266.6,16.4z"></path> <path class="st1" d="M271.1,7.7c0-1.3,1-2.3,2.2-2.3s2.3,1,2.3,2.2c0,1.3-1,2.3-2.2,2.3c0,0,0,0,0,0c-1.2,0.1-2.2-0.9-2.3-2.1 C271.1,7.8,271.1,7.7,271.1,7.7z M275.2,7.7c0-1-0.9-1.8-1.9-1.8s-1.8,0.9-1.8,1.9c0,1,0.8,1.8,1.8,1.8c1,0.1,1.8-0.7,1.9-1.6 C275.2,7.8,275.2,7.7,275.2,7.7L275.2,7.7z M272.3,8.4h0.1c0.1,0,0.1,0,0.1-0.1V6.9c0,0-0.1-0.1-0.1-0.1h-0.1V6.5h1.1 c0.6,0,0.9,0.2,0.9,0.6c0,0.3-0.2,0.5-0.5,0.5l0,0c0.2,0,0.4,0.2,0.4,0.4l0.1,0.2c0,0,0.1,0.1,0.1,0.1h0.1v0.3h-0.7l-0.1-0.6 c0-0.2-0.1-0.3-0.3-0.3c0,0,0,0,0,0h-0.2v0.6h0.2v0.3h-1.1L272.3,8.4L272.3,8.4z M273.2,7.5h0.2c0.2,0,0.3-0.1,0.3-0.2 c0,0,0-0.1,0-0.1c0-0.1-0.1-0.3-0.2-0.3c0,0-0.1,0-0.1,0h-0.2V7.5z"></path> </svg> 