<?xml version="1.0" encoding="UTF-8" standalone="no"?> <svg xmlns="http://www.w3.org/2000/svg" xmlns:xlink="http://www.w3.org/1999/xlink" xmlns:serif="http://www.serif.com/" width="100%" height="100%" viewBox="0 0 2341 441" version="1.1" xml:space="preserve" style="fill-rule:evenodd;clip-rule:evenodd;stroke-linejoin:round;stroke-miterlimit:2;"> <g transform="matrix(1,0,0,1,-628.785,-664.863)"> <g transform="matrix(4.16667,0,0,4.16667,0,0)"> <g transform="matrix(1,0,0,1,178.715,228.164)"> <path d="M0,-31.084L7.979,-31.084L15.01,-10.1L22.104,-31.084L30.069,-31.084L30.069,-18.376L44.646,-18.376L44.646,-31.084L50.021,-31.084L50.021,-0.502L44.646,-0.502L44.646,-13.394L30.069,-13.394L30.069,-0.502L24.671,-0.502L24.671,-22.005L17.079,-0.502L12.875,-0.502L5.282,-22.174L5.282,-0.502L0,-0.502L0,-31.084ZM72.67,-38.541C72.659,-38.565 72.644,-38.585 72.627,-38.603C72.503,-38.744 72.262,-38.723 72.174,-38.538L69.478,-32.74C69.424,-32.63 69.42,-32.503 69.463,-32.386C71.644,-26.568 72.718,-20.211 72.414,-13.574C71.29,10.812 51.503,30.555 27.116,31.613C12.264,32.259 -1.18,26.034 -10.308,15.863C-10.409,15.75 -10.335,15.568 -10.184,15.555L-4.889,15.163C-4.731,15.152 -4.576,15.207 -4.459,15.315C3.924,23.26 15.49,27.874 28.11,26.981C49.172,25.489 66.177,8.557 67.77,-12.501C68.314,-19.705 67.052,-26.568 64.409,-32.701C64.346,-32.848 64.35,-33.012 64.417,-33.155L71.942,-48.844C72.064,-49.099 71.861,-49.392 71.579,-49.365L66.415,-48.88C66.259,-48.864 66.106,-48.929 66.008,-49.053C64.839,-50.492 63.597,-51.87 62.285,-53.176C54.811,-60.628 45.124,-65.861 34.31,-67.789L34.194,-67.789C31.212,-68.317 28.144,-68.597 25.009,-68.597C21.918,-68.597 18.889,-68.327 15.94,-67.814L15.86,-67.814C-8.917,-63.467 -27.807,-41.795 -27.807,-15.792C-27.807,-8.28 -26.228,-1.132 -23.39,5.346C-23.372,5.386 -23.351,5.416 -23.329,5.44C-23.231,5.562 -23.104,5.531 -23.021,5.347L-20.154,-0.925C-20.118,-1.007 -20.11,-1.098 -20.139,-1.183C-21.848,-6.449 -22.66,-12.114 -22.393,-18C-21.27,-42.582 -1.186,-62.405 23.408,-63.221C37.486,-63.684 50.266,-57.98 59.25,-48.613C59.309,-48.55 59.271,-48.445 59.188,-48.435L53.794,-47.701C53.701,-47.689 53.607,-47.718 53.535,-47.781C48.185,-52.557 41.634,-56.014 34.399,-57.638C34.397,-57.645 34.395,-57.653 34.394,-57.662C31.371,-58.338 28.233,-58.697 25.012,-58.697C21.841,-58.697 18.752,-58.348 15.774,-57.694C15.772,-57.687 15.771,-57.678 15.768,-57.669C-3.449,-53.434 -17.873,-36.267 -17.873,-15.792C-17.873,-10.598 -16.938,-5.617 -15.236,-1.005C-15.17,-0.823 -15.177,-0.625 -15.258,-0.451L-22.719,15.921C-22.84,16.185 -22.634,16.479 -22.346,16.459L-17.561,16.103C-17.265,16.08 -16.977,16.211 -16.795,16.449C-15.715,17.845 -14.566,19.187 -13.356,20.468C-3.349,31.052 10.977,37.513 26.77,36.995C31.584,36.839 36.245,36.022 40.665,34.642C40.692,34.633 40.721,34.626 40.75,34.615C41.093,34.509 41.436,34.396 41.778,34.282C41.896,34.24 42.015,34.2 42.131,34.16C42.376,34.074 42.62,33.989 42.861,33.903C43.06,33.829 43.257,33.759 43.454,33.686C43.605,33.628 43.756,33.57 43.905,33.513C44.182,33.407 44.456,33.299 44.729,33.187C44.789,33.165 44.847,33.141 44.906,33.116C55.288,28.861 64.062,21.384 69.933,11.929C69.968,11.873 70.002,11.817 70.037,11.761C70.173,11.543 70.301,11.322 70.434,11.104C70.527,10.943 70.625,10.782 70.718,10.62C70.801,10.479 70.882,10.336 70.963,10.192C71.104,9.945 71.244,9.696 71.382,9.443C71.421,9.373 71.46,9.3 71.5,9.228C71.677,8.898 71.853,8.566 72.024,8.232C72.027,8.228 72.03,8.224 72.033,8.218C72.264,7.77 72.484,7.318 72.704,6.862C72.708,6.853 72.713,6.842 72.718,6.832C75.548,0.904 77.308,-5.622 77.729,-12.508C78.297,-21.858 76.415,-30.727 72.67,-38.541" style="fill:rgb(118,41,99);fill-rule:nonzero;"></path> </g> </g> <g transform="matrix(4.16667,0,0,4.16667,0,0)"> <g transform="matrix(1,0,0,1,309.059,234.245)"> <path d="M0,-42.994L0,0L-6.432,0L-6.432,-33.585L-6.551,-33.585L-13.221,0L-16.792,0L-23.462,-33.585L-23.582,-33.585L-23.582,0L-30.013,0L-30.013,-42.994L-20.307,-42.994L-15.066,-17.866L-14.947,-17.866L-9.706,-42.994L0,-42.994Z" style="fill:rgb(118,41,99);fill-rule:nonzero;"></path> </g> </g> <g transform="matrix(4.16667,0,0,4.16667,0,0)"> <g transform="matrix(1,0,0,1,0,-6.507)"> <rect x="315.669" y="197.757" width="7.383" height="42.993" style="fill:rgb(118,41,99);"></rect> </g> </g> <g transform="matrix(4.16667,0,0,4.16667,0,0)"> <g transform="matrix(1,0,0,1,344.908,219.894)"> <path d="M0,-14.292L0,-17.627C0,-21.26 -1.667,-22.807 -3.574,-22.807C-6.55,-22.807 -7.503,-21.26 -7.503,-18.044L-7.503,3.751C-7.503,6.966 -6.55,8.515 -3.574,8.515C-0.894,8.515 0,6.966 0,4.167L0,-1.013L7.384,-1.013L7.384,3.93C7.384,10.003 3.811,14.946 -3.574,14.946C-11.314,14.946 -14.888,10.003 -14.888,3.93L-14.888,-18.223C-14.888,-24.297 -11.314,-29.238 -3.574,-29.238C3.811,-29.238 7.384,-23.88 7.384,-17.449L7.384,-14.292L0,-14.292Z" style="fill:rgb(118,41,99);fill-rule:nonzero;"></path> </g> </g> <g transform="matrix(4.16667,0,0,4.16667,0,0)"> <g transform="matrix(1,0,0,1,357.308,191.25)"> <path d="M0,42.994L0,0L7.383,0L7.383,17.508L15.245,17.508L15.245,0L22.628,0L22.628,42.994L15.245,42.994L15.245,23.939L7.383,23.939L7.383,42.994L0,42.994Z" style="fill:rgb(118,41,99);fill-rule:nonzero;"></path> </g> </g> <g transform="matrix(4.16667,0,0,4.16667,0,0)"> <g transform="matrix(1,0,0,1,391.263,191.25)"> <path d="M0,42.994L-7.145,42.994L0.774,0L9.944,0L17.865,42.994L10.719,42.994L9.409,33.467L1.311,33.467L0,42.994ZM2.382,27.035L8.336,27.035L5.419,8.575L5.299,8.575L2.382,27.035Z" style="fill:rgb(118,41,99);fill-rule:nonzero;"></path> </g> </g> <g transform="matrix(4.16667,0,0,4.16667,0,0)"> <g transform="matrix(1,0,0,1,413.309,191.25)"> <path d="M0,42.994L0,0L18.473,0L18.473,6.432L7.383,6.432L7.383,17.508L15.614,17.508L15.614,23.939L7.383,23.939L7.383,36.562L19.306,36.562L19.306,42.994L0,42.994Z" style="fill:rgb(118,41,99);fill-rule:nonzero;"></path> </g> </g> <g transform="matrix(4.16667,0,0,4.16667,0,0)"> <g transform="matrix(1,0,0,1,439.284,191.25)"> <path d="M0,42.994L0,0L7.385,0L7.385,36.562L18.995,36.562L18.995,42.994L0,42.994Z" style="fill:rgb(118,41,99);fill-rule:nonzero;"></path> </g> </g> <g transform="matrix(4.16667,0,0,4.16667,0,0)"> <g transform="matrix(1,0,0,1,474.835,191.25)"> <path d="M0,42.994L0,0L7.383,0L7.383,17.508L15.244,17.508L15.244,0L22.628,0L22.628,42.994L15.244,42.994L15.244,23.939L7.383,23.939L7.383,42.994L0,42.994Z" style="fill:rgb(118,41,99);fill-rule:nonzero;"></path> </g> </g> <g transform="matrix(4.16667,0,0,4.16667,0,0)"> <g transform="matrix(1,0,0,1,516.651,191.25)"> <path d="M0,42.994L-7.385,42.994L-7.385,25.129L-16.316,0L-8.814,0L-3.633,16.376L-3.513,16.376L1.429,0L8.932,0L0,25.129L0,42.994Z" style="fill:rgb(118,41,99);fill-rule:nonzero;"></path> </g> </g> <g transform="matrix(4.16667,0,0,4.16667,0,0)"> <g transform="matrix(1,0,0,1,531.955,191.25)"> <path d="M0,42.994L-7.146,42.994L0.774,0L9.944,0L17.865,42.994L10.718,42.994L9.409,33.467L1.311,33.467L0,42.994ZM2.382,27.035L8.336,27.035L5.419,8.575L5.299,8.575L2.382,27.035Z" style="fill:rgb(118,41,99);fill-rule:nonzero;"></path> </g> </g> <g transform="matrix(4.16667,0,0,4.16667,0,0)"> <g transform="matrix(1,0,0,1,556.084,227.813)"> <path d="M0,-30.131L-7.146,-30.131L-7.146,-36.563L14.529,-36.563L14.529,-30.131L7.385,-30.131L7.385,6.432L0,6.432L0,-30.131Z" style="fill:rgb(118,41,99);fill-rule:nonzero;"></path> </g> </g> <g transform="matrix(4.16667,0,0,4.16667,0,0)"> <g transform="matrix(1,0,0,1,580.439,227.813)"> <path d="M0,-30.131L-7.145,-30.131L-7.145,-36.563L14.53,-36.563L14.53,-30.131L7.385,-30.131L7.385,6.432L0,6.432L0,-30.131Z" style="fill:rgb(118,41,99);fill-rule:nonzero;"></path> </g> </g> <g transform="matrix(4.16667,0,0,4.16667,0,0)"> <g transform="matrix(1,0,0,1,634.224,210.485)"> <path d="M0,4.525C-0.833,8.454 -2.5,12.087 -4.049,15.78C-2.917,16.792 -1.429,17.566 0.06,17.805L0.06,24.355C-3.096,24.295 -6.015,23.163 -8.276,21.079C-10.659,23.342 -13.04,24.355 -16.732,24.355C-22.985,24.355 -27.034,20.246 -27.034,14.29C-27.034,9.824 -24.355,5.358 -21.378,2.143C-22.926,-1.311 -24.772,-5.955 -24.772,-9.707C-24.772,-15.543 -21.615,-19.83 -15.422,-19.83C-10.004,-19.83 -6.669,-16.257 -6.669,-10.899C-6.669,-5.539 -10.718,-1.549 -14.054,2.143C-12.563,5.239 -10.777,8.217 -8.693,10.896C-7.682,8.277 -6.669,5.657 -6.073,2.917L0,4.525ZM-15.899,17.923C-14.469,17.923 -13.636,17.626 -12.505,16.673C-14.768,13.993 -16.851,11.194 -18.399,8.038C-19.65,9.944 -20.245,11.074 -20.245,13.339C-20.245,15.839 -18.459,17.923 -15.899,17.923M-16.674,-3.038C-14.946,-5.301 -13.101,-7.921 -13.101,-10.899C-13.101,-14.233 -14.054,-15.543 -15.779,-15.543C-17.625,-15.543 -18.698,-13.995 -18.698,-11.315C-18.698,-8.576 -17.685,-5.539 -16.674,-3.038" style="fill:rgb(118,41,99);fill-rule:nonzero;"></path> </g> </g> <g transform="matrix(4.16667,0,0,4.16667,0,0)"> <g transform="matrix(1,0,0,1,665.202,219.894)"> <path d="M0,-14.292L0,-17.627C0,-21.26 -1.667,-22.807 -3.573,-22.807C-6.551,-22.807 -7.503,-21.26 -7.503,-18.044L-7.503,3.751C-7.503,6.966 -6.551,8.515 -3.573,8.515C-0.893,8.515 0,6.966 0,4.167L0,-1.013L7.385,-1.013L7.385,3.93C7.385,10.003 3.812,14.946 -3.573,14.946C-11.313,14.946 -14.887,10.003 -14.887,3.93L-14.887,-18.223C-14.887,-24.297 -11.313,-29.238 -3.573,-29.238C3.812,-29.238 7.385,-23.88 7.385,-17.449L7.385,-14.292L0,-14.292Z" style="fill:rgb(118,41,99);fill-rule:nonzero;"></path> </g> </g> <g transform="matrix(4.16667,0,0,4.16667,0,0)"> <g transform="matrix(1,0,0,1,678.793,223.822)"> <path d="M0,-22.151C0,-28.225 3.573,-33.167 11.314,-33.167C19.055,-33.167 22.629,-28.225 22.629,-22.151L22.629,0.001C22.629,6.075 19.055,11.016 11.314,11.016C3.573,11.016 0,6.075 0,0.001L0,-22.151ZM7.385,-0.178C7.385,3.038 8.337,4.587 11.314,4.587C14.292,4.587 15.245,3.038 15.245,-0.178L15.245,-21.972C15.245,-25.188 14.292,-26.737 11.314,-26.737C8.337,-26.737 7.385,-25.188 7.385,-21.972L7.385,-0.178Z" style="fill:rgb(118,41,99);fill-rule:nonzero;"></path> </g> </g> <g transform="matrix(4.16667,0,0,4.16667,0,0)"> <g transform="matrix(1,0,0,1,0,29.46)"> <rect x="705.602" y="197.757" width="7.027" height="7.026" style="fill:rgb(118,41,99);"></rect> </g> </g> </g> </svg> 