<?xml version="1.0" encoding="UTF-8"?> <svg xmlns="http://www.w3.org/2000/svg" viewBox="0 0 840.36 926.4"><defs><style>.cls-1{fill:#fff;}</style></defs><g id="Layer_2" data-name="Layer 2"><g id="Layer_1-2" data-name="Layer 1"><g id="Layer_2-2" data-name="Layer 2"><g id="Capa_1" data-name="Capa 1"><g id="kIz4XG.tif"><path class="cls-1" d="M518.19,667.41c-1.49,58.45-7.58,116.2-26.18,172-8.72,26.17-20.4,50.89-41.07,70.19-24,22.38-43.86,22.59-68-.56-25.62-24.62-37.82-56.89-46.69-90.1-17.09-64-21.74-129.75-20.54-195.65,1-55.06,47.28-98.92,101-99.25,52.53-.32,96.61,40.19,101.23,94.07C519.37,634.42,518.19,651,518.19,667.41Z"></path><path class="cls-1" d="M315,392.76c-.27-57.82,47.89-104.69,107-104.08,51.45.53,97.71,48.7,98.24,102.29.55,56.07-46.56,103.43-103,103.56C361.51,494.66,315.3,448.62,315,392.76Z"></path><path class="cls-1" d="M838.14,375.34C817,157.76,620.67-9.43,397.44.41,177.12,10.12-.61,196.51,0,419.42.61,641.07,164.62,786.17,288.36,817.08q-5.83-28.32-9.75-56.89c-4.89-6.34-12-11.41-21.79-16.1C118.19,677.51,36.34,518.49,60.54,367.15c33.28-208.1,226-341.67,434.27-301,192.72,37.64,323.29,238.12,279.57,429.5-27.09,118.59-96,203.82-205.35,256.74-4.24,2.05-9.59,2.73-12.71,6.45-2.68,20.61-6.08,41.11-10.38,61.47C688.58,783.84,862,619.93,838.14,375.34Z"></path><path class="cls-1" d="M684.62,360.3c-31-129.3-147.91-215.9-284.26-211.8-124,3.74-234.8,101.29-257.85,226.32-24.33,132,55.42,247,127.15,281.19-.89-23.19-1.14-46.43-.87-69.69a32,32,0,0,0-4.11-4.89c-41.31-40.65-62.85-90.08-66.77-148C188.48,294.28,324.53,177,460.41,208.06c84.46,19.3,142.5,69.54,166.72,152.93,24.64,84.8,3.22,159.54-60,221.8a21.43,21.43,0,0,1-1.69,1.47c.52,18.76-.51,37.65-.51,56.45q-.2,7.71-.47,15.4C647.54,611.06,715.56,489.31,684.62,360.3Z"></path></g></g></g></g></g></svg> 