<?xml version="1.0" encoding="UTF-8"?> <svg xmlns="http://www.w3.org/2000/svg" viewBox="0 0 39 43"><defs><style>.cls-1{fill:#fff;}</style></defs><g id="Layer_2" data-name="Layer 2"><g id="Layer_1-2" data-name="Layer 1"><path class="cls-1" d="M19.5,8h0A2.5,2.5,0,0,1,17,5.5v-3A2.5,2.5,0,0,1,19.5,0h0A2.5,2.5,0,0,1,22,2.5v3A2.5,2.5,0,0,1,19.5,8Z"></path><path class="cls-1" d="M19.5,43h0A2.5,2.5,0,0,1,17,40.5v-3A2.5,2.5,0,0,1,19.5,35h0A2.5,2.5,0,0,1,22,37.5v3A2.5,2.5,0,0,1,19.5,43Z"></path><path class="cls-1" d="M19.5,32h0A2.5,2.5,0,0,1,17,29.5v-16A2.5,2.5,0,0,1,19.5,11h0A2.5,2.5,0,0,1,22,13.5v16A2.5,2.5,0,0,1,19.5,32Z"></path><path class="cls-1" d="M28.5,8h0A2.5,2.5,0,0,0,26,10.5v3A2.5,2.5,0,0,0,28.5,16h0A2.5,2.5,0,0,0,31,13.5v-3A2.5,2.5,0,0,0,28.5,8Z"></path><path class="cls-1" d="M28.5,19h0A2.5,2.5,0,0,0,26,21.5v10A2.5,2.5,0,0,0,28.5,34h0A2.5,2.5,0,0,0,31,31.5v-10A2.5,2.5,0,0,0,28.5,19Z"></path><path class="cls-1" d="M36.5,17h0A2.5,2.5,0,0,0,34,19.5v3A2.5,2.5,0,0,0,36.5,25h0A2.5,2.5,0,0,0,39,22.5v-3A2.5,2.5,0,0,0,36.5,17Z"></path><path class="cls-1" d="M10.5,34h0A2.5,2.5,0,0,1,8,31.5v-3A2.5,2.5,0,0,1,10.5,26h0A2.5,2.5,0,0,1,13,28.5v3A2.5,2.5,0,0,1,10.5,34Z"></path><path class="cls-1" d="M10.5,23h0A2.5,2.5,0,0,1,8,20.5v-10A2.5,2.5,0,0,1,10.5,8h0A2.5,2.5,0,0,1,13,10.5v10A2.5,2.5,0,0,1,10.5,23Z"></path><path class="cls-1" d="M2.5,17h0A2.5,2.5,0,0,1,5,19.5v3A2.5,2.5,0,0,1,2.5,25h0A2.5,2.5,0,0,1,0,22.5v-3A2.5,2.5,0,0,1,2.5,17Z"></path></g></g></svg> 