<?xml version="1.0" encoding="UTF-8"?> <svg xmlns="http://www.w3.org/2000/svg" viewBox="0 0 167.49 167.48"><defs><style>.cls-1{fill:#fff;}</style></defs><g id="Layer_2" data-name="Layer 2"><g id="Layer_1-2" data-name="Layer 1"><path class="cls-1" d="M83.74,0a83.74,83.74,0,1,0,83.75,83.74A83.74,83.74,0,0,0,83.74,0Zm38.41,120.78a5.22,5.22,0,0,1-7.18,1.73c-19.67-12-44.42-14.73-73.57-8.07a5.22,5.22,0,0,1-2.32-10.18C71,97,98.34,100.11,120.42,113.6A5.22,5.22,0,0,1,122.15,120.78ZM132.4,98a6.52,6.52,0,0,1-9,2.16C100.91,86.29,66.59,82.28,40,90.37a6.53,6.53,0,1,1-3.8-12.5C66.59,68.65,104.4,73.11,130.25,89a6.53,6.53,0,0,1,2.15,9Zm.88-23.74c-27-16-71.52-17.5-97.29-9.68a7.83,7.83,0,1,1-4.55-15c29.58-9,78.76-7.25,109.83,11.2a7.83,7.83,0,0,1-8,13.47Z"></path></g></g></svg> 