<?xml version="1.0" encoding="UTF-8"?> <svg xmlns="http://www.w3.org/2000/svg" xmlns:xlink="http://www.w3.org/1999/xlink" version="1.1" id="Layer_1" x="0px" y="0px" viewBox="0 0 600 600" style="enable-background:new 0 0 600 600;" xml:space="preserve"> <style type="text/css"> .st0{fill:#12D678;} </style> <g> <g> <g> <path class="st0" d="M320.1,218.6c37.9,33.7,91.2,38.4,139.1,45.6c25.5,3.8,57,7,73.1,30c3.5,5,6,10.7,7,16.7 c1.1,7.3-0.4,14.5-2.6,21.4c-2.2,6.6-4.9,13-6.7,19.7c-1.7,6.7-2.2,13.5-1.9,20.4c1.1,26.9,13.2,53.7,2.3,80.2 c-9.3,22.7-30.6,39.2-52.8,48.2c-13.8,5.6-28.7,8.9-43.6,7.8c-15-1.1-29.5-5.4-44.7-5.5c-14.3,0-28.7,2.7-42.1,7.9 c-13.1,5.1-25.5,13-39.8,14.7c-23.8,2.8-45.6-10.4-67.5-17.4c-10.5-3.3-21.6-5.4-32.6-3.8c-6.7,1-13,3.6-19.3,5.9 c-7.4,2.7-15.1,4.6-22.9,5.6c-14.2,1.8-28.9,1.9-43.2,1.6c-13.9-0.2-28.5-1.7-40.8-8.9c-22.1-12.9-31.3-39.9-30.8-64.4 c0.3-15.4,3.9-30.5,8.6-45c4.7-14.4,11.1-28.3,15.5-42.8c4.2-13.6,6-27.6,2.3-41.6c-3.5-13.4-10.4-25.6-13.3-39.2 c-5.4-25.1,0-52.2,13.6-73.9c12.8-20.3,34.3-33.4,46.5-54.1c2.9-4.9,5.1-10.3,6.3-15.9c1.4-6.8,1.4-14,4-20.5 c4.7-11.5,15.3-20.6,26-26.3c19.4-10.4,44.2-11.9,64.1-2c22.7,11.3,33.2,35.7,41.3,58.3c4.1,11.3,7.8,22.7,12.5,33.7 c4.3,10.1,9.5,20.2,17,28.4c6.9,7.6,15.6,13,25.6,15.3c0.8,0.2,1.1-1,0.3-1.2c-24.4-5.6-36.4-28.9-44.7-50.3 c-8.9-22.8-14.7-48.1-30.2-67.6c-6.9-8.7-15.7-15.7-26.1-19.8c-10-3.9-20.9-5.3-31.6-4.4c-10.7,0.9-21.3,4.1-30.7,9.5 c-10,5.8-19.8,14.4-24.5,25.2c-2.9,6.5-2.9,13.7-4.2,20.6c-1.2,6.1-3.5,11.8-6.7,17c-6.4,10.5-15.5,19.1-24.1,27.7 c-8.8,8.7-17.3,17.7-23.6,28.5C68,214.9,63.6,227,61.5,239.5c-2,12.1-1.9,24.6,0.7,36.6c3,13.8,10,26.3,13.5,40 c3.9,15.4,0.8,30.7-4.2,45.4c-5,14.7-11.3,28.9-15.7,43.7c-7.6,25.8-10.6,54.5,1.9,79.3c5.2,10.3,12.9,19.4,22.9,25.2 c11.7,6.8,25.5,8.6,38.8,9c14.9,0.4,30.1,0.3,44.9-1.5c7.4-0.9,14.7-2.4,21.7-4.9c6.8-2.4,13.3-5.4,20.5-6.6 c24.2-4.3,46.9,9.6,69.1,16.8c10.8,3.5,22.2,5.7,33.5,4c14.3-2.1,26.8-10.2,40.2-15.2c14.2-5.3,29.4-7.8,44.5-7.1 c15.4,0.7,30.3,5.5,45.8,5.6c14.2,0.1,28.3-3.6,41.2-9.2c11.1-4.8,21.5-11.4,30.4-19.5c8.6-7.8,15.8-17.3,20.3-28 c5.1-12.3,5.6-25.5,4-38.5c-1.8-14.1-5.5-28-6.1-42.3c-0.3-7.3,0.3-14.6,2.3-21.7c2-7,4.9-13.6,7-20.5c1.8-6.1,2.8-12.4,2-18.8 c-0.8-5.9-3.1-11.5-6.4-16.5c-6.9-10.6-17.7-17.6-29.4-22.1c-13-4.9-27-7-40.7-9.1c-12.9-2-25.8-3.7-38.7-5.8 c-25.3-4-50.9-9.2-74.2-20.3c-11-5.2-21.2-11.8-30.3-19.9C320.4,217.2,319.5,218.1,320.1,218.6L320.1,218.6z"></path> </g> </g> <g> <g> <path class="st0" d="M336.2,197.1c45.1,39.8,109.9,42.7,166.7,49.3c30.4,3.5,69.5,6.1,87.5,35c4.2,6.7,6.7,14.4,6.8,22.3 c0.2,8.6-2.5,16.8-5.5,24.7c-3,8-6.5,15.8-8.6,24.2c-1.9,7.9-2.5,16-2.3,24.1c0.5,17.1,4.5,33.8,5.8,50.8 c1.2,16.2-0.7,32.2-8,46.9c-13.3,27-39.4,46.8-66.7,58.1c-17.2,7.1-35.4,11.3-54.1,10c-17.9-1.2-35.3-5.4-53.3-4.4 c-17.2,1-34.2,5.2-50,12.1c-15.8,6.9-30.9,16.5-48.3,18.7c-28.6,3.6-54.7-11.9-81.4-19.1c-13-3.5-26.7-5-40-1.9 c-8.4,2-16.2,5.9-24.3,8.8c-8.5,3.1-17.3,5.2-26.2,6.5c-17.8,2.7-36.3,3.5-54.3,3.5c-16.3,0-33.4-1.8-47.4-10.8 C6.3,538.9-1.4,505,1.4,475.8c1.7-18.5,7.1-36.6,13.5-53.9c6.3-16.9,14.2-33.2,19.7-50.4c5.2-16.4,7.4-33,3-49.8 c-4-15.6-11.5-30.2-14.1-46.2c-5-30.5,3.2-62.6,19.9-88.2c16.2-24.9,42.3-41.4,58-66.6c3.5-5.6,6.3-11.7,8.1-18.1 c2.3-8.5,2.5-17.6,5.8-25.9c5.7-14.1,18.6-25.6,31.5-33.1c22.7-13.3,52.4-17.4,77-6.9c27.8,11.9,40.1,41.1,49,68 c4.5,13.7,8.6,27.6,13.9,41c4.8,12,10.5,24,19.1,33.8c8.1,9.2,18.6,15.5,30.6,17.9c0.8,0.2,1.1-1,0.3-1.2 c-29.7-5.9-43.3-34.5-52.5-60.4c-9.7-27.5-15.8-58.3-35-81.2c-16.9-20.1-42.8-27.6-68.4-24.1c-13.1,1.8-25.8,6.4-37,13.3 C132,51.2,120.2,62,114.5,75.3c-3.6,8.3-3.8,17.4-6,26c-1.9,7.2-5.1,13.9-9.1,20.1c-8.1,12.5-19.1,22.9-29.7,33.4 c-10.9,10.8-21.4,21.9-29.4,35c-7.9,13-13.6,27.3-16.8,42.2c-3,14.4-3.6,29.3-1.2,43.8c2.7,16.4,10.4,31.2,14.4,47.2 c4.6,18.6,0.9,36.8-5.4,54.5C25,394.8,17,411.5,11,429c-10.6,30.8-17.3,65.9-4.1,97c5.3,12.4,13.6,23.6,25,30.9 c13.6,8.8,30.1,10.8,45.9,11c17.7,0.2,35.8-0.7,53.3-3c9-1.2,17.9-3,26.5-5.9c8.7-2.9,16.9-7.2,25.8-9.5 c29.1-7.8,56.7,7.5,83.8,15.8c13.2,4,27.1,6.6,40.9,4.5c16.9-2.6,31.6-11.9,47-18.6c17.2-7.5,35.9-11.8,54.7-12.1 c18.5-0.3,36.4,4.7,54.8,4.9c17.6,0.1,35-4.7,51-11.8c13.5-5.9,26.2-13.8,37.3-23.5c11.1-9.6,20.8-21.2,27.1-34.5 c6.7-14,8.8-29.2,7.9-44.6c-1.1-17.4-5.2-34.4-5.9-51.8c-0.3-9,0.3-18.1,2.8-26.9c2.4-8.6,6.2-16.7,9.2-25.1 c2.6-7.4,4.7-15.1,4.4-23c-0.3-6.9-2.3-13.7-5.6-19.8c-7.2-13.1-19.7-21.8-33.4-27.1c-15.3-5.8-31.8-7.8-48-9.8 c-15.8-1.9-31.6-3.5-47.3-5.5c-30.7-3.8-62-8.7-90.5-21.4c-13.2-5.9-25.6-13.5-36.5-23.1C336.5,195.7,335.6,196.6,336.2,197.1 L336.2,197.1z"></path> </g> </g> </g> </svg> 