<?xml version="1.0" encoding="UTF-8"?> <svg xmlns="http://www.w3.org/2000/svg" xmlns:xlink="http://www.w3.org/1999/xlink" version="1.1" id="Layer_1" x="0px" y="0px" viewBox="0 0 600 600" style="enable-background:new 0 0 600 600;" xml:space="preserve"> <style type="text/css"> .st0{fill:#F4F4F4;} .st1{fill:none;stroke:#02293D;stroke-width:10;stroke-linecap:round;stroke-linejoin:round;stroke-miterlimit:10;} </style> <g> <g> <image style="overflow:visible;opacity:0.2;" width="1009" height="1009" transform="matrix(0.48 0 0 0.48 57.96 57.96)"> </image> <g> <circle class="st0" cx="300" cy="300" r="226.9"></circle> </g> </g> <g> <path class="st1" d="M395.8,187.7v249.8c0,11.2-9.1,20.3-20.4,20.3H224.6c-11.2,0-20.4-9.1-20.4-20.3V187.7 c0-11.2,9.1-20.3,20.4-20.3h21.8v33.3c0,5.3,4.3,9.6,9.6,9.6h29.8l14.2,19.6l14.2-19.6h29.8c5.3,0,9.6-4.3,9.6-9.6v-33.3h21.8 C386.7,167.4,395.8,176.5,395.8,187.7z"></path> <path class="st1" d="M372,197.1v216.2c0,4.1-3.3,7.4-7.4,7.4H235.4c-4.1,0-7.3-3.3-7.3-7.4V197.1c0-4.1,3.3-7.4,7.3-7.4h11v10.9 c0,5.3,4.3,9.6,9.6,9.6h29.8l14.2,19.6l14.2-19.6h29.8c5.3,0,9.6-4.3,9.6-9.6v-10.9h11C368.7,189.8,372,193.1,372,197.1z"></path> <path class="st1" d="M353.6,151.7v48.9c0,5.3-4.3,9.6-9.6,9.6h-29.8L300,229.9l-14.2-19.6h-29.8c-5.2,0-9.6-4.3-9.6-9.6v-48.9 c0-5.3,4.3-9.6,9.6-9.6h88.1C349.4,142.1,353.6,146.5,353.6,151.7z"></path> <path class="st1" d="M316.8,176.1l-3.7,3.7l0,0L300,192.9l-16.8-16.8c-3.6-3.6-3.6-9.5,0-13.1c1.8-1.8,4.2-2.7,6.6-2.7 s4.8,0.9,6.6,2.7l3.6,3.6l3.7-3.7c1.8-1.8,4.2-2.7,6.6-2.7c2.4,0,4.8,0.9,6.6,2.7C320.4,166.5,320.4,172.4,316.8,176.1z"></path> <rect x="252.4" y="253.5" class="st1" width="95.2" height="80.4"></rect> <line class="st1" x1="252.4" y1="358.1" x2="347.6" y2="358.1"></line> <line class="st1" x1="284.2" y1="439" x2="315.8" y2="439"></line> </g> </g> </svg> 